<?xml version="1.0" encoding="UTF-8" standalone="no"?>
<!DOCTYPE svg PUBLIC "-//W3C//DTD SVG 1.1//EN"
 "http://www.w3.org/Graphics/SVG/1.1/DTD/svg11.dtd">
<!-- Generated by graphviz version 2.47.0 (20210316.0004)
 -->
<!-- Title: dependencies Pages: 1 -->
<svg width="671pt" height="211pt"
 viewBox="0.00 0.00 671.00 211.00" xmlns="http://www.w3.org/2000/svg" xmlns:xlink="http://www.w3.org/1999/xlink">
<g id="graph0" class="graph" transform="scale(1 1) rotate(0) translate(4 207)">
<title>dependencies</title>
<polygon fill="white" stroke="transparent" points="-4,4 -4,-207 667,-207 667,4 -4,4"/>
<text text-anchor="start" x="310.51" y="-42.4" font-family="Times-12" font-weight="bold" font-size="14.00">Legend</text>
<polygon fill="#ffffb3" stroke="transparent" points="97.5,-10 97.5,-30 117.5,-30 117.5,-10 97.5,-10"/>
<text text-anchor="start" x="121.13" y="-15.4" font-family="Times-12" font-size="14.00"> &#160;Declarations</text>
<polygon fill="#8dd3c7" stroke="transparent" points="210.5,-10 210.5,-30 230.5,-30 230.5,-10 210.5,-10"/>
<text text-anchor="start" x="234.23" y="-15.4" font-family="Times-12" font-size="14.00"> &#160;Module</text>
<polygon fill="#80b1d3" stroke="transparent" points="296.5,-10 296.5,-30 316.5,-30 316.5,-10 296.5,-10"/>
<text text-anchor="start" x="320.28" y="-15.4" font-family="Times-12" font-size="14.00"> &#160;Bootstrap</text>
<polygon fill="#fdb462" stroke="transparent" points="393.5,-10 393.5,-30 413.5,-30 413.5,-10 393.5,-10"/>
<text text-anchor="start" x="417.17" y="-15.4" font-family="Times-12" font-size="14.00"> &#160;Providers</text>
<polygon fill="#fb8072" stroke="transparent" points="489.5,-10 489.5,-30 509.5,-30 509.5,-10 489.5,-10"/>
<text text-anchor="start" x="513.23" y="-15.4" font-family="Times-12" font-size="14.00"> &#160;Exports</text>
<g id="clust1" class="cluster">
<title>cluster_TablesModule</title>
<polygon fill="none" stroke="black" stroke-dasharray="1,5" points="8,-70 8,-195 655,-195 655,-70 8,-70"/>
</g>
<g id="clust2" class="cluster">
<title>cluster_TablesModule_declarations</title>
<polygon fill="none" stroke="black" points="16,-78 16,-130 647,-130 647,-78 16,-78"/>
</g>
<!-- BasicTableComponent -->
<g id="node1" class="node">
<title>BasicTableComponent</title>
<polygon fill="#ffffb3" stroke="black" points="639.31,-122 494.69,-122 494.69,-86 639.31,-86 639.31,-122"/>
<text text-anchor="middle" x="567" y="-99.8" font-family="Times,serif" font-size="14.00">BasicTableComponent</text>
</g>
<!-- TablesModule -->
<g id="node5" class="node">
<title>TablesModule</title>
<polygon fill="#8dd3c7" stroke="black" points="371.37,-187 368.37,-191 347.37,-191 344.37,-187 274.63,-187 274.63,-151 371.37,-151 371.37,-187"/>
<text text-anchor="middle" x="323" y="-164.8" font-family="Times,serif" font-size="14.00">TablesModule</text>
</g>
<!-- BasicTableComponent&#45;&gt;TablesModule -->
<g id="edge1" class="edge">
<title>BasicTableComponent&#45;&gt;TablesModule</title>
<path fill="none" stroke="black" d="M567,-122.11C567,-141.34 567,-169 567,-169 567,-169 381.5,-169 381.5,-169"/>
<polygon fill="black" stroke="black" points="381.5,-165.5 371.5,-169 381.5,-172.5 381.5,-165.5"/>
</g>
<!-- DataTableComponent -->
<g id="node2" class="node">
<title>DataTableComponent</title>
<polygon fill="#ffffb3" stroke="black" points="476.63,-122 337.37,-122 337.37,-86 476.63,-86 476.63,-122"/>
<text text-anchor="middle" x="407" y="-99.8" font-family="Times,serif" font-size="14.00">DataTableComponent</text>
</g>
<!-- DataTableComponent&#45;&gt;TablesModule -->
<g id="edge2" class="edge">
<title>DataTableComponent&#45;&gt;TablesModule</title>
<path fill="none" stroke="black" d="M354.31,-122.11C354.31,-122.11 354.31,-140.99 354.31,-140.99"/>
<polygon fill="black" stroke="black" points="350.81,-140.99 354.31,-150.99 357.81,-140.99 350.81,-140.99"/>
</g>
<!-- NgxDatatableComponent -->
<g id="node3" class="node">
<title>NgxDatatableComponent</title>
<polygon fill="#ffffb3" stroke="black" points="319.58,-122 160.42,-122 160.42,-86 319.58,-86 319.58,-122"/>
<text text-anchor="middle" x="240" y="-99.8" font-family="Times,serif" font-size="14.00">NgxDatatableComponent</text>
</g>
<!-- NgxDatatableComponent&#45;&gt;TablesModule -->
<g id="edge3" class="edge">
<title>NgxDatatableComponent&#45;&gt;TablesModule</title>
<path fill="none" stroke="black" d="M297.05,-122.11C297.05,-122.11 297.05,-140.99 297.05,-140.99"/>
<polygon fill="black" stroke="black" points="293.55,-140.99 297.05,-150.99 300.55,-140.99 293.55,-140.99"/>
</g>
<!-- TablesComponent -->
<g id="node4" class="node">
<title>TablesComponent</title>
<polygon fill="#ffffb3" stroke="black" points="142.15,-122 23.85,-122 23.85,-86 142.15,-86 142.15,-122"/>
<text text-anchor="middle" x="83" y="-99.8" font-family="Times,serif" font-size="14.00">TablesComponent</text>
</g>
<!-- TablesComponent&#45;&gt;TablesModule -->
<g id="edge4" class="edge">
<title>TablesComponent&#45;&gt;TablesModule</title>
<path fill="none" stroke="black" d="M83,-122.11C83,-141.34 83,-169 83,-169 83,-169 264.43,-169 264.43,-169"/>
<polygon fill="black" stroke="black" points="264.43,-172.5 274.43,-169 264.43,-165.5 264.43,-172.5"/>
</g>
</g>
</svg>
