<?xml version="1.0" encoding="UTF-8" standalone="no"?>
<!DOCTYPE svg PUBLIC "-//W3C//DTD SVG 1.1//EN"
 "http://www.w3.org/Graphics/SVG/1.1/DTD/svg11.dtd">
<!-- Generated by graphviz version 2.47.0 (20210316.0004)
 -->
<!-- Title: dependencies Pages: 1 -->
<svg width="880pt" height="284pt"
 viewBox="0.00 0.00 880.00 284.00" xmlns="http://www.w3.org/2000/svg" xmlns:xlink="http://www.w3.org/1999/xlink">
<g id="graph0" class="graph" transform="scale(1 1) rotate(0) translate(4 280)">
<title>dependencies</title>
<polygon fill="white" stroke="transparent" points="-4,4 -4,-280 876,-280 876,4 -4,4"/>
<text text-anchor="start" x="415.01" y="-42.4" font-family="Times-12" font-weight="bold" font-size="14.00">Legend</text>
<polygon fill="#ffffb3" stroke="transparent" points="202,-10 202,-30 222,-30 222,-10 202,-10"/>
<text text-anchor="start" x="225.63" y="-15.4" font-family="Times-12" font-size="14.00"> &#160;Declarations</text>
<polygon fill="#8dd3c7" stroke="transparent" points="315,-10 315,-30 335,-30 335,-10 315,-10"/>
<text text-anchor="start" x="338.73" y="-15.4" font-family="Times-12" font-size="14.00"> &#160;Module</text>
<polygon fill="#80b1d3" stroke="transparent" points="401,-10 401,-30 421,-30 421,-10 401,-10"/>
<text text-anchor="start" x="424.78" y="-15.4" font-family="Times-12" font-size="14.00"> &#160;Bootstrap</text>
<polygon fill="#fdb462" stroke="transparent" points="498,-10 498,-30 518,-30 518,-10 498,-10"/>
<text text-anchor="start" x="521.67" y="-15.4" font-family="Times-12" font-size="14.00"> &#160;Providers</text>
<polygon fill="#fb8072" stroke="transparent" points="594,-10 594,-30 614,-30 614,-10 594,-10"/>
<text text-anchor="start" x="617.73" y="-15.4" font-family="Times-12" font-size="14.00"> &#160;Exports</text>
<g id="clust1" class="cluster">
<title>cluster_AppModule</title>
<polygon fill="none" stroke="black" stroke-dasharray="1,5" points="8,-70 8,-268 864,-268 864,-70 8,-70"/>
</g>
<g id="clust8" class="cluster">
<title>cluster_AppModule_providers</title>
<polygon fill="none" stroke="black" points="572,-78 572,-130 856,-130 856,-78 572,-78"/>
</g>
<g id="clust5" class="cluster">
<title>cluster_AppModule_imports</title>
<polygon fill="none" stroke="black" points="302,-78 302,-130 564,-130 564,-78 302,-78"/>
</g>
<g id="clust7" class="cluster">
<title>cluster_AppModule_bootstrap</title>
<polygon fill="none" stroke="black" points="298,-208 298,-260 422,-260 422,-208 298,-208"/>
</g>
<g id="clust2" class="cluster">
<title>cluster_AppModule_declarations</title>
<polygon fill="none" stroke="black" points="16,-78 16,-130 294,-130 294,-78 16,-78"/>
</g>
<!-- AppComponent -->
<g id="node1" class="node">
<title>AppComponent</title>
<polygon fill="#ffffb3" stroke="black" points="285.94,-122 180.06,-122 180.06,-86 285.94,-86 285.94,-122"/>
<text text-anchor="middle" x="233" y="-99.8" font-family="Times,serif" font-size="14.00">AppComponent</text>
</g>
<!-- AppModule -->
<g id="node3" class="node">
<title>AppModule</title>
<polygon fill="#8dd3c7" stroke="black" points="401.66,-187 398.66,-191 377.66,-191 374.66,-187 318.34,-187 318.34,-151 401.66,-151 401.66,-187"/>
<text text-anchor="middle" x="360" y="-164.8" font-family="Times,serif" font-size="14.00">AppModule</text>
</g>
<!-- AppComponent&#45;&gt;AppModule -->
<g id="edge1" class="edge">
<title>AppComponent&#45;&gt;AppModule</title>
<path fill="none" stroke="black" d="M233,-122.02C233,-139.37 233,-163 233,-163 233,-163 308.06,-163 308.06,-163"/>
<polygon fill="black" stroke="black" points="308.06,-166.5 318.06,-163 308.06,-159.5 308.06,-166.5"/>
</g>
<!-- ErrorPageComponent -->
<g id="node2" class="node">
<title>ErrorPageComponent</title>
<polygon fill="#ffffb3" stroke="black" points="162.08,-122 23.92,-122 23.92,-86 162.08,-86 162.08,-122"/>
<text text-anchor="middle" x="93" y="-99.8" font-family="Times,serif" font-size="14.00">ErrorPageComponent</text>
</g>
<!-- ErrorPageComponent&#45;&gt;AppModule -->
<g id="edge2" class="edge">
<title>ErrorPageComponent&#45;&gt;AppModule</title>
<path fill="none" stroke="black" d="M93,-122.28C93,-143.32 93,-175 93,-175 93,-175 308.28,-175 308.28,-175"/>
<polygon fill="black" stroke="black" points="308.28,-178.5 318.28,-175 308.28,-171.5 308.28,-178.5"/>
</g>
<!-- AppComponent  -->
<g id="node6" class="node">
<title>AppComponent </title>
<polygon fill="#80b1d3" stroke="black" points="414.44,-252 305.56,-252 305.56,-216 414.44,-216 414.44,-252"/>
<text text-anchor="middle" x="360" y="-229.8" font-family="Times,serif" font-size="14.00">AppComponent </text>
</g>
<!-- AppModule&#45;&gt;AppComponent  -->
<g id="edge5" class="edge">
<title>AppModule&#45;&gt;AppComponent </title>
<path fill="none" stroke="black" stroke-dasharray="1,5" d="M360,-187.11C360,-187.11 360,-205.99 360,-205.99"/>
<polygon fill="black" stroke="black" points="356.5,-205.99 360,-215.99 363.5,-205.99 356.5,-205.99"/>
</g>
<!-- AppRoutingModule -->
<g id="node4" class="node">
<title>AppRoutingModule</title>
<polygon fill="#8dd3c7" stroke="black" points="556.27,-122 553.27,-126 532.27,-126 529.27,-122 427.73,-122 427.73,-86 556.27,-86 556.27,-122"/>
<text text-anchor="middle" x="492" y="-99.8" font-family="Times,serif" font-size="14.00">AppRoutingModule</text>
</g>
<!-- AppRoutingModule&#45;&gt;AppModule -->
<g id="edge3" class="edge">
<title>AppRoutingModule&#45;&gt;AppModule</title>
<path fill="none" stroke="black" d="M492,-122.02C492,-139.37 492,-163 492,-163 492,-163 411.77,-163 411.77,-163"/>
<polygon fill="black" stroke="black" points="411.77,-159.5 401.77,-163 411.77,-166.5 411.77,-159.5"/>
</g>
<!-- LayoutModule -->
<g id="node5" class="node">
<title>LayoutModule</title>
<polygon fill="#8dd3c7" stroke="black" points="409.71,-122 406.71,-126 385.71,-126 382.71,-122 310.29,-122 310.29,-86 409.71,-86 409.71,-122"/>
<text text-anchor="middle" x="360" y="-99.8" font-family="Times,serif" font-size="14.00">LayoutModule</text>
</g>
<!-- LayoutModule&#45;&gt;AppModule -->
<g id="edge4" class="edge">
<title>LayoutModule&#45;&gt;AppModule</title>
<path fill="none" stroke="black" d="M360,-122.11C360,-122.11 360,-140.99 360,-140.99"/>
<polygon fill="black" stroke="black" points="356.5,-140.99 360,-150.99 363.5,-140.99 356.5,-140.99"/>
</g>
<!-- CheckTokenValidityInterceptor -->
<g id="node7" class="node">
<title>CheckTokenValidityInterceptor</title>
<ellipse fill="#fdb462" stroke="black" cx="714" cy="-104" rx="134.27" ry="18"/>
<text text-anchor="middle" x="714" y="-99.8" font-family="Times,serif" font-size="14.00">CheckTokenValidityInterceptor</text>
</g>
<!-- CheckTokenValidityInterceptor&#45;&gt;AppModule -->
<g id="edge6" class="edge">
<title>CheckTokenValidityInterceptor&#45;&gt;AppModule</title>
<path fill="none" stroke="black" d="M714,-122.28C714,-143.32 714,-175 714,-175 714,-175 412,-175 412,-175"/>
<polygon fill="black" stroke="black" points="412,-171.5 402,-175 412,-178.5 412,-171.5"/>
</g>
</g>
</svg>
