<?xml version="1.0" encoding="UTF-8" standalone="no"?>
<!DOCTYPE svg PUBLIC "-//W3C//DTD SVG 1.1//EN"
 "http://www.w3.org/Graphics/SVG/1.1/DTD/svg11.dtd">
<!-- Generated by graphviz version 2.47.0 (20210316.0004)
 -->
<!-- Title: dependencies Pages: 1 -->
<svg width="911pt" height="211pt"
 viewBox="0.00 0.00 911.00 211.00" xmlns="http://www.w3.org/2000/svg" xmlns:xlink="http://www.w3.org/1999/xlink">
<g id="graph0" class="graph" transform="scale(1 1) rotate(0) translate(4 207)">
<title>dependencies</title>
<polygon fill="white" stroke="transparent" points="-4,4 -4,-207 907,-207 907,4 -4,4"/>
<text text-anchor="start" x="430.51" y="-42.4" font-family="Times-12" font-weight="bold" font-size="14.00">Legend</text>
<polygon fill="#ffffb3" stroke="transparent" points="217.5,-10 217.5,-30 237.5,-30 237.5,-10 217.5,-10"/>
<text text-anchor="start" x="241.13" y="-15.4" font-family="Times-12" font-size="14.00"> &#160;Declarations</text>
<polygon fill="#8dd3c7" stroke="transparent" points="330.5,-10 330.5,-30 350.5,-30 350.5,-10 330.5,-10"/>
<text text-anchor="start" x="354.23" y="-15.4" font-family="Times-12" font-size="14.00"> &#160;Module</text>
<polygon fill="#80b1d3" stroke="transparent" points="416.5,-10 416.5,-30 436.5,-30 436.5,-10 416.5,-10"/>
<text text-anchor="start" x="440.28" y="-15.4" font-family="Times-12" font-size="14.00"> &#160;Bootstrap</text>
<polygon fill="#fdb462" stroke="transparent" points="513.5,-10 513.5,-30 533.5,-30 533.5,-10 513.5,-10"/>
<text text-anchor="start" x="537.17" y="-15.4" font-family="Times-12" font-size="14.00"> &#160;Providers</text>
<polygon fill="#fb8072" stroke="transparent" points="609.5,-10 609.5,-30 629.5,-30 629.5,-10 609.5,-10"/>
<text text-anchor="start" x="633.23" y="-15.4" font-family="Times-12" font-size="14.00"> &#160;Exports</text>
<g id="clust1" class="cluster">
<title>cluster_LayoutModule</title>
<polygon fill="none" stroke="black" stroke-dasharray="1,5" points="8,-70 8,-195 895,-195 895,-70 8,-70"/>
</g>
<g id="clust8" class="cluster">
<title>cluster_LayoutModule_imports</title>
<polygon fill="none" stroke="black" points="745,-78 745,-130 887,-130 887,-78 745,-78"/>
</g>
<g id="clust2" class="cluster">
<title>cluster_LayoutModule_declarations</title>
<polygon fill="none" stroke="black" points="16,-78 16,-130 737,-130 737,-78 16,-78"/>
</g>
<!-- BaseComponent -->
<g id="node1" class="node">
<title>BaseComponent</title>
<polygon fill="#ffffb3" stroke="black" points="729.04,-122 620.96,-122 620.96,-86 729.04,-86 729.04,-122"/>
<text text-anchor="middle" x="675" y="-99.8" font-family="Times,serif" font-size="14.00">BaseComponent</text>
</g>
<!-- LayoutModule -->
<g id="node6" class="node">
<title>LayoutModule</title>
<polygon fill="#8dd3c7" stroke="black" points="492.71,-187 489.71,-191 468.71,-191 465.71,-187 393.29,-187 393.29,-151 492.71,-151 492.71,-187"/>
<text text-anchor="middle" x="443" y="-164.8" font-family="Times,serif" font-size="14.00">LayoutModule</text>
</g>
<!-- BaseComponent&#45;&gt;LayoutModule -->
<g id="edge1" class="edge">
<title>BaseComponent&#45;&gt;LayoutModule</title>
<path fill="none" stroke="black" d="M675,-122.02C675,-139.37 675,-163 675,-163 675,-163 502.77,-163 502.77,-163"/>
<polygon fill="black" stroke="black" points="502.77,-159.5 492.77,-163 502.77,-166.5 502.77,-159.5"/>
</g>
<!-- ContentAnimateDirective -->
<g id="node2" class="node">
<title>ContentAnimateDirective</title>
<polygon fill="#ffffb3" stroke="black" points="602.12,-122 441.88,-122 441.88,-86 602.12,-86 602.12,-122"/>
<text text-anchor="middle" x="522" y="-99.8" font-family="Times,serif" font-size="14.00">ContentAnimateDirective</text>
</g>
<!-- ContentAnimateDirective&#45;&gt;LayoutModule -->
<g id="edge2" class="edge">
<title>ContentAnimateDirective&#45;&gt;LayoutModule</title>
<path fill="none" stroke="black" d="M467.15,-122.11C467.15,-122.11 467.15,-140.99 467.15,-140.99"/>
<polygon fill="black" stroke="black" points="463.65,-140.99 467.15,-150.99 470.65,-140.99 463.65,-140.99"/>
</g>
<!-- FooterComponent -->
<g id="node3" class="node">
<title>FooterComponent</title>
<polygon fill="#ffffb3" stroke="black" points="423.88,-122 306.12,-122 306.12,-86 423.88,-86 423.88,-122"/>
<text text-anchor="middle" x="365" y="-99.8" font-family="Times,serif" font-size="14.00">FooterComponent</text>
</g>
<!-- FooterComponent&#45;&gt;LayoutModule -->
<g id="edge3" class="edge">
<title>FooterComponent&#45;&gt;LayoutModule</title>
<path fill="none" stroke="black" d="M408.67,-122.11C408.67,-122.11 408.67,-140.99 408.67,-140.99"/>
<polygon fill="black" stroke="black" points="405.17,-140.99 408.67,-150.99 412.17,-140.99 405.17,-140.99"/>
</g>
<!-- NavbarComponent -->
<g id="node4" class="node">
<title>NavbarComponent</title>
<polygon fill="#ffffb3" stroke="black" points="288.03,-122 165.97,-122 165.97,-86 288.03,-86 288.03,-122"/>
<text text-anchor="middle" x="227" y="-99.8" font-family="Times,serif" font-size="14.00">NavbarComponent</text>
</g>
<!-- NavbarComponent&#45;&gt;LayoutModule -->
<g id="edge4" class="edge">
<title>NavbarComponent&#45;&gt;LayoutModule</title>
<path fill="none" stroke="black" d="M227,-122.02C227,-139.37 227,-163 227,-163 227,-163 383.17,-163 383.17,-163"/>
<polygon fill="black" stroke="black" points="383.17,-166.5 393.17,-163 383.17,-159.5 383.17,-166.5"/>
</g>
<!-- SidebarComponent -->
<g id="node5" class="node">
<title>SidebarComponent</title>
<polygon fill="#ffffb3" stroke="black" points="148.1,-122 23.9,-122 23.9,-86 148.1,-86 148.1,-122"/>
<text text-anchor="middle" x="86" y="-99.8" font-family="Times,serif" font-size="14.00">SidebarComponent</text>
</g>
<!-- SidebarComponent&#45;&gt;LayoutModule -->
<g id="edge5" class="edge">
<title>SidebarComponent&#45;&gt;LayoutModule</title>
<path fill="none" stroke="black" d="M86,-122.28C86,-143.32 86,-175 86,-175 86,-175 383.36,-175 383.36,-175"/>
<polygon fill="black" stroke="black" points="383.36,-178.5 393.36,-175 383.36,-171.5 383.36,-178.5"/>
</g>
<!-- FeatherIconModule -->
<g id="node7" class="node">
<title>FeatherIconModule</title>
<polygon fill="#8dd3c7" stroke="black" points="879.4,-122 876.4,-126 855.4,-126 852.4,-122 752.6,-122 752.6,-86 879.4,-86 879.4,-122"/>
<text text-anchor="middle" x="816" y="-99.8" font-family="Times,serif" font-size="14.00">FeatherIconModule</text>
</g>
<!-- FeatherIconModule&#45;&gt;LayoutModule -->
<g id="edge6" class="edge">
<title>FeatherIconModule&#45;&gt;LayoutModule</title>
<path fill="none" stroke="black" d="M816,-122.28C816,-143.32 816,-175 816,-175 816,-175 502.92,-175 502.92,-175"/>
<polygon fill="black" stroke="black" points="502.92,-171.5 492.92,-175 502.92,-178.5 502.92,-171.5"/>
</g>
</g>
</svg>
